<svg xmlns:xlink="http://www.w3.org/1999/xlink" width="212" height="200" viewBox="0 0 106 100" xmlns="http://www.w3.org/2000/svg" class="europeanShape"><circle cx="6.25825" cy="14.0433" r="1.50361" fill="#DCE6F1"></circle><circle cx="6.25825" cy="18.0531" r="1.50361" fill="#DCE6F1"></circle><circle cx="10.2678" cy="18.0531" r="1.50361" fill="#DCE6F1"></circle><circle cx="10.2678" cy="22.0626" r="1.50361" fill="#DCE6F1"></circle><circle cx="10.2678" cy="26.0722" r="1.50361" fill="#DCE6F1"></circle><circle cx="14.2771" cy="18.0531" r="1.50361" fill="#DCE6F1"></circle><circle cx="14.2771" cy="22.0626" r="1.50361" fill="#DCE6F1"></circle><circle cx="14.2771" cy="26.0722" r="1.50361" fill="#DCE6F1"></circle><circle cx="18.2863" cy="18.0531" r="1.50361" fill="#DCE6F1"></circle><circle cx="18.2863" cy="22.0626" r="1.50361" fill="#DCE6F1"></circle><circle cx="22.2959" cy="22.0626" r="1.50361" fill="#DCE6F1"></circle><circle cx="33.3225" cy="29.5808" r="1.50361" fill="#DCE6F1"></circle><circle cx="40.841" cy="37.0987" r="1.50361" fill="#DCE6F1"></circle><circle cx="40.841" cy="41.1083" r="1.50361" fill="#DCE6F1"></circle><circle cx="36.8317" cy="41.1083" r="1.50361" fill="#DCE6F1"></circle><circle cx="40.841" cy="45.1181" r="1.50361" fill="#DCE6F1"></circle><circle cx="44.8505" cy="41.1083" r="1.50361" fill="#DCE6F1"></circle><circle cx="48.8598" cy="41.1083" r="1.50361" fill="#DCE6F1"></circle><circle cx="44.8505" cy="53.1372" r="1.50361" fill="#DCE6F1"></circle><circle cx="48.8598" cy="53.1372" r="1.50361" fill="#DCE6F1"></circle><circle cx="52.8693" cy="53.1372" r="1.50361" fill="#DCE6F1"></circle><circle cx="44.8505" cy="37.0987" r="1.50361" fill="#DCE6F1"></circle><circle cx="52.8693" cy="33.5903" r="1.50361" fill="#DCE6F1"></circle><circle cx="60.3879" cy="33.5903" r="1.50361" fill="#DCE6F1"></circle><circle cx="72.4169" cy="33.5903" r="1.50361" fill="#DCE6F1"></circle><circle cx="64.3974" cy="33.5903" r="1.50361" fill="#DCE6F1"></circle><circle cx="76.4262" cy="33.5903" r="1.50361" fill="#DCE6F1"></circle><circle cx="68.4074" cy="33.5903" r="1.50361" fill="#DCE6F1"></circle><circle cx="80.4365" cy="33.5903" r="1.50361" fill="#DCE6F1"></circle><circle cx="72.4169" cy="37.5999" r="1.50361" fill="#DCE6F1"></circle><circle cx="64.3974" cy="37.5999" r="1.50361" fill="#DCE6F1"></circle><circle cx="64.3974" cy="41.6097" r="1.50361" fill="#DCE6F1"></circle><circle cx="76.4262" cy="37.5999" r="1.50361" fill="#DCE6F1"></circle><circle cx="76.4262" cy="41.6097" r="1.50361" fill="#DCE6F1"></circle><circle cx="76.4262" cy="45.6192" r="1.50361" fill="#DCE6F1"></circle><circle cx="68.4067" cy="37.5999" r="1.50361" fill="#DCE6F1"></circle><circle cx="68.4067" cy="41.6097" r="1.50361" fill="#DCE6F1"></circle><circle cx="80.4365" cy="37.5999" r="1.50361" fill="#DCE6F1"></circle><circle cx="80.4365" cy="41.6097" r="1.50361" fill="#DCE6F1"></circle><circle cx="80.4365" cy="45.6192" r="1.50361" fill="#DCE6F1"></circle><circle cx="64.3974" cy="29.5808" r="1.50361" fill="#DCE6F1"></circle><circle cx="76.4262" cy="29.5808" r="1.50361" fill="#DCE6F1"></circle><circle cx="76.4262" cy="25.571" r="1.50361" fill="#DCE6F1"></circle><circle cx="76.4262" cy="21.5614" r="1.50361" fill="#DCE6F1"></circle><circle cx="76.4262" cy="17.5516" r="1.50361" fill="#DCE6F1"></circle><circle cx="96.4748" cy="29.5808" r="1.50361" fill="#DCE6F1"></circle><circle cx="96.4748" cy="57.6481" r="1.50361" fill="#DCE6F1"></circle><circle cx="91.4621" cy="57.6481" r="1.50361" fill="#DCE6F1"></circle><circle cx="87.4528" cy="57.6481" r="1.50361" fill="#DCE6F1"></circle><circle cx="83.4436" cy="57.6481" r="1.50361" fill="#DCE6F1"></circle><circle cx="79.4333" cy="57.6481" r="1.50361" fill="#DCE6F1"></circle><circle cx="75.9255" cy="57.6481" r="1.50361" fill="#DCE6F1"></circle><circle cx="71.9152" cy="57.6481" r="1.50361" fill="#DCE6F1"></circle><circle cx="67.906" cy="57.6481" r="1.50361" fill="#DCE6F1"></circle><circle cx="63.8957" cy="57.6481" r="1.50361" fill="#DCE6F1"></circle><circle cx="59.8864" cy="57.6481" r="1.50361" fill="#DCE6F1"></circle><circle cx="55.8772" cy="61.6577" r="1.50361" fill="#DCE6F1"></circle><circle cx="51.8676" cy="65.6675" r="1.50361" fill="#DCE6F1"></circle><circle cx="96.4748" cy="49.6288" r="1.50361" fill="#DCE6F1"></circle><circle cx="96.4748" cy="21.5614" r="1.50361" fill="#DCE6F1"></circle><circle cx="91.4631" cy="49.6288" r="1.50361" fill="#DCE6F1"></circle><circle cx="96.4748" cy="17.5516" r="1.50361" fill="#DCE6F1"></circle><circle cx="96.4748" cy="53.6386" r="1.50361" fill="#DCE6F1"></circle><circle cx="96.4748" cy="45.6192" r="1.50361" fill="#DCE6F1"></circle><circle cx="91.4631" cy="53.6386" r="1.50361" fill="#DCE6F1"></circle><circle cx="87.4528" cy="53.6386" r="1.50361" fill="#DCE6F1"></circle><circle cx="96.4748" cy="25.571" r="1.50361" fill="#DCE6F1"></circle><circle cx="83.4436" cy="53.6386" r="1.50361" fill="#DCE6F1"></circle><circle cx="79.4333" cy="53.6386" r="1.50361" fill="#DCE6F1"></circle><circle cx="71.9152" cy="53.6386" r="1.50361" fill="#DCE6F1"></circle><circle cx="75.9255" cy="53.6386" r="1.50361" fill="#DCE6F1"></circle><circle cx="75.9255" cy="49.6288" r="1.50361" fill="#DCE6F1"></circle><circle cx="67.906" cy="53.6386" r="1.50361" fill="#DCE6F1"></circle><circle cx="67.906" cy="49.6288" r="1.50361" fill="#DCE6F1"></circle><circle cx="96.4748" cy="13.5421" r="1.50361" fill="#DCE6F1"></circle><circle cx="96.4748" cy="61.6577" r="1.50361" fill="#DCE6F1"></circle><circle cx="96.4748" cy="9.53255" r="1.50361" fill="#DCE6F1"></circle><circle cx="96.4748" cy="5.52278" r="1.50361" fill="#DCE6F1"></circle><circle cx="96.4748" cy="65.6675" r="1.50361" fill="#DCE6F1"></circle><circle cx="96.4748" cy="69.6771" r="1.50361" fill="#DCE6F1"></circle><circle cx="96.4748" cy="73.6866" r="1.50361" fill="#DCE6F1"></circle><circle cx="96.4748" cy="77.6964" r="1.50361" fill="#DCE6F1"></circle><circle cx="96.4748" cy="81.7059" r="1.50361" fill="#DCE6F1"></circle><circle cx="96.4748" cy="89.7253" r="1.50361" fill="#DCE6F1"></circle><circle cx="96.4748" cy="85.7155" r="1.50361" fill="#DCE6F1"></circle><circle cx="91.4631" cy="61.6577" r="1.50361" fill="#DCE6F1"></circle><circle cx="96.4748" cy="93.7349" r="1.50361" fill="#DCE6F1"></circle><circle cx="96.4748" cy="33.5903" r="1.50361" fill="#DCE6F1"></circle><circle cx="91.4631" cy="65.6675" r="1.50361" fill="#DCE6F1"></circle><circle cx="91.4621" cy="69.6771" r="1.50361" fill="#DCE6F1"></circle><circle cx="91.4631" cy="73.6866" r="1.50361" fill="#DCE6F1"></circle><circle cx="87.4528" cy="61.6577" r="1.50361" fill="#DCE6F1"></circle><circle cx="91.4631" cy="77.6964" r="1.50361" fill="#DCE6F1"></circle><circle cx="91.4621" cy="81.7059" r="1.50361" fill="#DCE6F1"></circle><circle cx="87.4528" cy="65.6675" r="1.50361" fill="#DCE6F1"></circle><circle cx="87.4528" cy="69.6771" r="1.50361" fill="#DCE6F1"></circle><circle cx="87.4528" cy="73.6866" r="1.50361" fill="#DCE6F1"></circle><circle cx="87.4528" cy="77.6964" r="1.50361" fill="#DCE6F1"></circle><circle cx="87.4528" cy="81.7059" r="1.50361" fill="#DCE6F1"></circle><circle cx="83.4436" cy="61.6577" r="1.50361" fill="#DCE6F1"></circle><circle cx="71.9152" cy="61.6577" r="1.50361" fill="#DCE6F1"></circle><circle cx="79.4333" cy="61.6577" r="1.50361" fill="#DCE6F1"></circle><circle cx="67.906" cy="61.6577" r="1.50361" fill="#DCE6F1"></circle><circle cx="63.8957" cy="61.6577" r="1.50361" fill="#DCE6F1"></circle><circle cx="59.8864" cy="61.6577" r="1.50361" fill="#DCE6F1"></circle><circle cx="55.8772" cy="65.6675" r="1.50361" fill="#DCE6F1"></circle><circle cx="75.9255" cy="61.6577" r="1.50361" fill="#DCE6F1"></circle><circle cx="51.8676" cy="69.6771" r="1.50361" fill="#DCE6F1"></circle><circle cx="47.8584" cy="69.6771" r="1.50361" fill="#DCE6F1"></circle><circle cx="47.8584" cy="81.7059" r="1.50361" fill="#DCE6F1"></circle><circle cx="43.8481" cy="81.7059" r="1.50361" fill="#DCE6F1"></circle><circle cx="43.8481" cy="93.7349" r="1.50361" fill="#DCE6F1"></circle><circle cx="43.8481" cy="97.7445" r="1.50361" fill="#DCE6F1"></circle><circle cx="43.8481" cy="85.7155" r="1.50361" fill="#DCE6F1"></circle><circle cx="43.8481" cy="89.7253" r="1.50361" fill="#DCE6F1"></circle><circle cx="39.8381" cy="81.7059" r="1.50361" fill="#DCE6F1"></circle><circle cx="39.8381" cy="93.7349" r="1.50361" fill="#DCE6F1"></circle><circle cx="39.8381" cy="97.7445" r="1.50361" fill="#DCE6F1"></circle><circle cx="39.8381" cy="85.7155" r="1.50361" fill="#DCE6F1"></circle><circle cx="39.8381" cy="89.7253" r="1.50361" fill="#DCE6F1"></circle><circle cx="35.8286" cy="81.7059" r="1.50361" fill="#DCE6F1"></circle><circle cx="35.8286" cy="93.7349" r="1.50361" fill="#DCE6F1"></circle><circle cx="31.8193" cy="93.7349" r="1.50361" fill="#DCE6F1"></circle><circle cx="35.8286" cy="97.7445" r="1.50361" fill="#DCE6F1"></circle><circle cx="35.8286" cy="85.7155" r="1.50361" fill="#DCE6F1"></circle><circle cx="35.8286" cy="89.7253" r="1.50361" fill="#DCE6F1"></circle><circle cx="31.8193" cy="85.7155" r="1.50361" fill="#DCE6F1"></circle><circle cx="31.8193" cy="89.7253" r="1.50361" fill="#DCE6F1"></circle><circle cx="43.8481" cy="69.6771" r="1.50361" fill="#DCE6F1"></circle><circle cx="39.8381" cy="69.6771" r="1.50361" fill="#DCE6F1"></circle><circle cx="96.4748" cy="37.5999" r="1.50361" fill="#DCE6F1"></circle><circle cx="96.4748" cy="41.6097" r="1.50361" fill="#DCE6F1"></circle><circle cx="71.9152" cy="65.6675" r="1.50361" fill="#DCE6F1"></circle><circle cx="71.9152" cy="73.6866" r="1.50361" fill="#DCE6F1"></circle><circle cx="83.4436" cy="65.6675" r="1.50361" fill="#DCE6F1"></circle><circle cx="67.906" cy="65.6675" r="1.50361" fill="#DCE6F1"></circle><circle cx="67.906" cy="73.6866" r="1.50361" fill="#DCE6F1"></circle><circle cx="67.906" cy="83.7108" r="1.50361" fill="#DCE6F1"></circle><circle cx="63.8957" cy="65.6675" r="1.50361" fill="#DCE6F1"></circle><circle cx="63.8957" cy="73.6866" r="1.50361" fill="#DCE6F1"></circle><circle cx="59.8864" cy="65.6675" r="1.50361" fill="#DCE6F1"></circle><circle cx="59.8864" cy="73.6866" r="1.50361" fill="#DCE6F1"></circle><circle cx="55.8772" cy="69.6771" r="1.50361" fill="#DCE6F1"></circle><circle cx="55.8772" cy="77.6964" r="1.50361" fill="#DCE6F1"></circle><circle cx="79.4333" cy="65.6675" r="1.50361" fill="#DCE6F1"></circle><circle cx="75.9255" cy="65.6675" r="1.50361" fill="#DCE6F1"></circle><circle cx="51.8676" cy="73.6866" r="1.50361" fill="#DCE6F1"></circle><circle cx="47.8584" cy="73.6866" r="1.50361" fill="#DCE6F1"></circle><circle cx="47.8584" cy="85.7155" r="1.50361" fill="#DCE6F1"></circle><circle cx="43.8481" cy="73.6866" r="1.50361" fill="#DCE6F1"></circle><circle cx="51.8676" cy="81.7059" r="1.50361" fill="#DCE6F1"></circle><circle cx="71.9152" cy="69.6771" r="1.50361" fill="#DCE6F1"></circle><circle cx="71.9152" cy="77.6964" r="1.50361" fill="#DCE6F1"></circle><circle cx="83.4436" cy="69.6771" r="1.50361" fill="#DCE6F1"></circle><circle cx="67.906" cy="69.6771" r="1.50361" fill="#DCE6F1"></circle><circle cx="67.906" cy="77.6964" r="1.50361" fill="#DCE6F1"></circle><circle cx="67.906" cy="87.7204" r="1.50361" fill="#DCE6F1"></circle><circle cx="63.8957" cy="69.6771" r="1.50361" fill="#DCE6F1"></circle><circle cx="63.8957" cy="77.6964" r="1.50361" fill="#DCE6F1"></circle><circle cx="63.8957" cy="81.7059" r="1.50361" fill="#DCE6F1"></circle><circle cx="59.8864" cy="69.6771" r="1.50361" fill="#DCE6F1"></circle><circle cx="59.8864" cy="77.6964" r="1.50361" fill="#DCE6F1"></circle><circle cx="59.8864" cy="81.7059" r="1.50361" fill="#DCE6F1"></circle><circle cx="55.8772" cy="73.6866" r="1.50361" fill="#DCE6F1"></circle><circle cx="55.8772" cy="81.7059" r="1.50361" fill="#DCE6F1"></circle><circle cx="55.8772" cy="85.7155" r="1.50361" fill="#DCE6F1"></circle><circle cx="79.4333" cy="69.6771" r="1.50361" fill="#DCE6F1"></circle><circle cx="79.9348" cy="89.7253" r="1.50361" fill="#DCE6F1"></circle><circle cx="83.9443" cy="89.7253" r="1.50361" fill="#DCE6F1"></circle><circle cx="75.9255" cy="69.6771" r="1.50361" fill="#DCE6F1"></circle><circle cx="51.8676" cy="77.6964" r="1.50361" fill="#DCE6F1"></circle><circle cx="47.8584" cy="77.6964" r="1.50361" fill="#DCE6F1"></circle><circle cx="47.8584" cy="89.7253" r="1.50361" fill="#DCE6F1"></circle><circle cx="51.8676" cy="85.7155" r="1.50361" fill="#DCE6F1"></circle><circle cx="75.9255" cy="81.7059" r="1.50361" fill="#DCE6F1"></circle><circle cx="71.9152" cy="81.7059" r="1.50361" fill="#DCE6F1"></circle><circle cx="75.9255" cy="85.7155" r="1.50361" fill="#DCE6F1"></circle><circle cx="79.9348" cy="85.7155" r="1.50361" fill="#DCE6F1"></circle><circle cx="83.4436" cy="73.6866" r="1.50361" fill="#DCE6F1"></circle><circle cx="79.4333" cy="73.6866" r="1.50361" fill="#DCE6F1"></circle><circle cx="79.9348" cy="93.7349" r="1.50361" fill="#DCE6F1"></circle><circle cx="83.9443" cy="93.7349" r="1.50361" fill="#DCE6F1"></circle><circle cx="79.9348" cy="98.2458" r="1.50361" fill="#DCE6F1"></circle><circle cx="83.4436" cy="77.6964" r="1.50361" fill="#DCE6F1"></circle><circle cx="91.4631" cy="89.7253" r="1.50361" fill="#DCE6F1"></circle><circle cx="91.4631" cy="85.7155" r="1.50361" fill="#DCE6F1"></circle><circle cx="91.4621" cy="93.7349" r="1.50361" fill="#DCE6F1"></circle><circle cx="91.4631" cy="97.7445" r="1.50361" fill="#DCE6F1"></circle><circle cx="72.4169" cy="29.5808" r="1.50361" fill="#DCE6F1"></circle><circle cx="72.4169" cy="25.571" r="1.50361" fill="#DCE6F1"></circle><circle cx="92.4653" cy="21.5614" r="1.50361" fill="#DCE6F1"></circle><circle cx="92.4646" cy="17.5516" r="1.50361" fill="#DCE6F1"></circle><circle cx="92.4646" cy="29.5808" r="1.50361" fill="#DCE6F1"></circle><circle cx="92.4653" cy="13.5421" r="1.50361" fill="#DCE6F1"></circle><circle cx="92.4653" cy="25.571" r="1.50361" fill="#DCE6F1"></circle><circle cx="92.4646" cy="9.53255" r="1.50361" fill="#DCE6F1"></circle><circle cx="92.4646" cy="5.52278" r="1.50361" fill="#DCE6F1"></circle><circle cx="92.4653" cy="33.5903" r="1.50361" fill="#DCE6F1"></circle><circle cx="60.3879" cy="29.5806" r="1.50361" fill="#DCE6F1"></circle><circle cx="68.4067" cy="29.5808" r="1.50361" fill="#DCE6F1"></circle><circle cx="88.4553" cy="21.5614" r="1.50361" fill="#DCE6F1"></circle><circle cx="68.4074" cy="25.571" r="1.50361" fill="#DCE6F1"></circle><circle cx="88.4553" cy="17.5516" r="1.50361" fill="#DCE6F1"></circle><circle cx="88.4553" cy="29.5808" r="1.50361" fill="#DCE6F1"></circle><circle cx="80.4365" cy="21.5614" r="1.50361" fill="#DCE6F1"></circle><circle cx="88.4553" cy="13.5421" r="1.50361" fill="#DCE6F1"></circle><circle cx="88.4553" cy="25.571" r="1.50361" fill="#DCE6F1"></circle><circle cx="80.4365" cy="17.5516" r="1.50361" fill="#DCE6F1"></circle><circle cx="88.4553" cy="9.53255" r="1.50361" fill="#DCE6F1"></circle><circle cx="88.4553" cy="5.52278" r="1.50361" fill="#DCE6F1"></circle><circle cx="100.484" cy="21.5614" r="1.50361" fill="#DCE6F1"></circle><circle cx="100.484" cy="49.6288" r="1.50361" fill="#DCE6F1"></circle><circle cx="104.494" cy="49.6288" r="1.50361" fill="#DCE6F1"></circle><circle cx="80.4365" cy="13.5421" r="1.50361" fill="#DCE6F1"></circle><circle cx="80.4365" cy="29.5808" r="1.50361" fill="#DCE6F1"></circle><circle cx="100.484" cy="17.5516" r="1.50361" fill="#DCE6F1"></circle><circle cx="100.484" cy="45.6192" r="1.50361" fill="#DCE6F1"></circle><circle cx="104.494" cy="45.6192" r="1.50361" fill="#DCE6F1"></circle><circle cx="80.4365" cy="25.571" r="1.50361" fill="#DCE6F1"></circle><circle cx="100.484" cy="13.5421" r="1.50361" fill="#DCE6F1"></circle><circle cx="100.484" cy="41.6097" r="1.50361" fill="#DCE6F1"></circle><circle cx="104.494" cy="41.6097" r="1.50361" fill="#DCE6F1"></circle><circle cx="84.4458" cy="21.5614" r="1.50361" fill="#DCE6F1"></circle><circle cx="100.484" cy="29.5808" r="1.50361" fill="#DCE6F1"></circle><circle cx="100.484" cy="57.6481" r="1.50361" fill="#DCE6F1"></circle><circle cx="104.494" cy="57.6481" r="1.50361" fill="#DCE6F1"></circle><circle cx="84.4458" cy="17.5516" r="1.50361" fill="#DCE6F1"></circle><circle cx="100.484" cy="25.571" r="1.50361" fill="#DCE6F1"></circle><circle cx="100.484" cy="53.6386" r="1.50361" fill="#DCE6F1"></circle><circle cx="104.494" cy="53.6386" r="1.50361" fill="#DCE6F1"></circle><circle cx="100.484" cy="9.53255" r="1.50361" fill="#DCE6F1"></circle><circle cx="100.484" cy="5.52278" r="1.50361" fill="#DCE6F1"></circle><circle cx="100.484" cy="1.5132" r="1.50361" fill="#DCE6F1"></circle><circle cx="84.4458" cy="13.5421" r="1.50361" fill="#DCE6F1"></circle><circle cx="104.494" cy="21.5614" r="1.50361" fill="#DCE6F1"></circle><circle cx="104.494" cy="17.5516" r="1.50361" fill="#DCE6F1"></circle><circle cx="84.4458" cy="33.5903" r="1.50361" fill="#DCE6F1"></circle><circle cx="100.484" cy="33.5903" r="1.50361" fill="#DCE6F1"></circle><circle cx="100.484" cy="61.6577" r="1.50361" fill="#DCE6F1"></circle><circle cx="104.494" cy="61.6577" r="1.50361" fill="#DCE6F1"></circle><circle cx="100.484" cy="37.5999" r="1.50361" fill="#DCE6F1"></circle><circle cx="100.484" cy="69.6771" r="1.50361" fill="#DCE6F1"></circle><circle cx="100.484" cy="65.6675" r="1.50361" fill="#DCE6F1"></circle><circle cx="100.484" cy="73.6866" r="1.50361" fill="#DCE6F1"></circle><circle cx="104.494" cy="69.6771" r="1.50361" fill="#DCE6F1"></circle><circle cx="100.484" cy="77.6964" r="1.50361" fill="#DCE6F1"></circle><circle cx="104.494" cy="73.6866" r="1.50361" fill="#DCE6F1"></circle><circle cx="100.484" cy="81.7059" r="1.50361" fill="#DCE6F1"></circle><circle cx="104.494" cy="77.6964" r="1.50361" fill="#DCE6F1"></circle><circle cx="104.494" cy="89.7253" r="1.50361" fill="#DCE6F1"></circle><circle cx="104.494" cy="81.7059" r="1.50361" fill="#DCE6F1"></circle><circle cx="104.494" cy="93.7349" r="1.50361" fill="#DCE6F1"></circle><circle cx="100.484" cy="85.7155" r="1.50361" fill="#DCE6F1"></circle><circle cx="104.494" cy="65.6675" r="1.50361" fill="#DCE6F1"></circle><circle cx="104.494" cy="85.7155" r="1.50361" fill="#DCE6F1"></circle><circle cx="104.494" cy="97.7445" r="1.50361" fill="#DCE6F1"></circle><circle cx="104.494" cy="13.5421" r="1.50361" fill="#DCE6F1"></circle><circle cx="84.4458" cy="29.5808" r="1.50361" fill="#DCE6F1"></circle><circle cx="84.4458" cy="25.571" r="1.50361" fill="#DCE6F1"></circle><circle cx="84.4458" cy="9.53255" r="1.50361" fill="#DCE6F1"></circle><circle cx="84.4458" cy="37.5999" r="1.50361" fill="#DCE6F1"></circle><circle cx="84.4458" cy="41.6097" r="1.50361" fill="#DCE6F1"></circle><circle cx="84.4458" cy="45.6192" r="1.50361" fill="#DCE6F1"></circle><circle cx="88.4553" cy="37.5999" r="1.50361" fill="#DCE6F1"></circle><circle cx="104.494" cy="29.5808" r="1.50361" fill="#DCE6F1"></circle><circle cx="104.494" cy="25.571" r="1.50361" fill="#DCE6F1"></circle><circle cx="104.494" cy="9.53255" r="1.50361" fill="#DCE6F1"></circle><circle cx="104.494" cy="5.52278" r="1.50361" fill="#DCE6F1"></circle><circle cx="104.494" cy="1.5132" r="1.50361" fill="#DCE6F1"></circle><circle cx="104.494" cy="33.5903" r="1.50361" fill="#DCE6F1"></circle><circle cx="44.8505" cy="49.1276" r="1.50361" fill="#DCE6F1"></circle><circle cx="48.8598" cy="49.1276" r="1.50361" fill="#DCE6F1"></circle><circle cx="44.8505" cy="45.1181" r="1.50361" fill="#DCE6F1"></circle><circle cx="44.8505" cy="57.147" r="1.50361" fill="#DCE6F1"></circle><circle cx="33.3225" cy="57.1469" r="1.50361" fill="#DCE6F1"></circle><circle cx="33.3225" cy="53.1374" r="1.50361" fill="#DCE6F1"></circle><circle cx="33.3225" cy="48.6265" r="1.50361" fill="#DCE6F1"></circle><circle cx="37.3325" cy="53.1374" r="1.50361" fill="#DCE6F1"></circle><circle cx="37.3325" cy="48.6265" r="1.50361" fill="#DCE6F1"></circle><circle cx="29.3129" cy="57.147" r="1.50361" fill="#DCE6F1"></circle><circle cx="40.841" cy="57.147" r="1.50361" fill="#DCE6F1"></circle><circle cx="29.3129" cy="53.1374" r="1.50361" fill="#DCE6F1"></circle><circle cx="48.8598" cy="57.147" r="1.50361" fill="#DCE6F1"></circle><circle cx="52.8693" cy="57.147" r="1.50361" fill="#DCE6F1"></circle><circle cx="44.8505" cy="61.1566" r="1.50361" fill="#DCE6F1"></circle><circle cx="36.8317" cy="61.1566" r="1.50361" fill="#DCE6F1"></circle><circle cx="48.8598" cy="61.1566" r="1.50361" fill="#DCE6F1"></circle><circle cx="40.841" cy="61.1566" r="1.50361" fill="#DCE6F1"></circle><circle cx="2.24824" cy="18.0531" r="1.50361" fill="#DCE6F1"></circle><circle cx="6.25825" cy="22.0626" r="1.50361" fill="#DCE6F1"></circle></svg>